<mxfile host="app.diagrams.net" modified="2023-04-21T06:27:22.242Z" agent="Mozilla/5.0 (Windows NT 10.0; Win64; x64) AppleWebKit/537.36 (KHTML, like Gecko) Chrome/112.0.0.0 Safari/537.36 Edg/112.0.1722.48" etag="UHTKy0XxrKn2Q5slYMc6" version="21.2.1" type="github">
  <diagram name="第 1 页" id="ciOyXhxDm9hMIdZ6c_kA">
    <mxGraphModel dx="1142" dy="662" grid="1" gridSize="10" guides="1" tooltips="1" connect="1" arrows="1" fold="1" page="1" pageScale="1" pageWidth="827" pageHeight="1169" math="0" shadow="0">
      <root>
        <mxCell id="0" />
        <mxCell id="1" parent="0" />
        <mxCell id="MS2a3Lw9wrA2Gzybz4xg-11" style="edgeStyle=orthogonalEdgeStyle;rounded=0;orthogonalLoop=1;jettySize=auto;html=1;exitX=1;exitY=0.5;exitDx=0;exitDy=0;entryX=0;entryY=0.5;entryDx=0;entryDy=0;" edge="1" parent="1" source="MS2a3Lw9wrA2Gzybz4xg-1" target="MS2a3Lw9wrA2Gzybz4xg-5">
          <mxGeometry relative="1" as="geometry" />
        </mxCell>
        <mxCell id="MS2a3Lw9wrA2Gzybz4xg-1" value="上锁操作" style="rounded=0;whiteSpace=wrap;html=1;" vertex="1" parent="1">
          <mxGeometry x="40" y="120" width="120" height="40" as="geometry" />
        </mxCell>
        <mxCell id="MS2a3Lw9wrA2Gzybz4xg-2" value="&lt;font style=&quot;font-size: 23px;&quot;&gt;循环操作&lt;/font&gt;" style="rounded=1;whiteSpace=wrap;html=1;arcSize=46;" vertex="1" parent="1">
          <mxGeometry x="40" y="180" width="120" height="350" as="geometry" />
        </mxCell>
        <mxCell id="MS2a3Lw9wrA2Gzybz4xg-12" style="edgeStyle=orthogonalEdgeStyle;rounded=0;orthogonalLoop=1;jettySize=auto;html=1;exitX=0.5;exitY=1;exitDx=0;exitDy=0;entryX=0.5;entryY=0;entryDx=0;entryDy=0;" edge="1" parent="1" source="MS2a3Lw9wrA2Gzybz4xg-5" target="MS2a3Lw9wrA2Gzybz4xg-6">
          <mxGeometry relative="1" as="geometry" />
        </mxCell>
        <mxCell id="MS2a3Lw9wrA2Gzybz4xg-5" value="获取巡检地址address、&lt;br&gt;巡检地址长度" style="rounded=0;whiteSpace=wrap;html=1;" vertex="1" parent="1">
          <mxGeometry x="200" y="200" width="150" height="80" as="geometry" />
        </mxCell>
        <mxCell id="MS2a3Lw9wrA2Gzybz4xg-13" style="edgeStyle=orthogonalEdgeStyle;rounded=0;orthogonalLoop=1;jettySize=auto;html=1;exitX=0.5;exitY=1;exitDx=0;exitDy=0;entryX=0.5;entryY=0;entryDx=0;entryDy=0;" edge="1" parent="1" source="MS2a3Lw9wrA2Gzybz4xg-6" target="MS2a3Lw9wrA2Gzybz4xg-7">
          <mxGeometry relative="1" as="geometry" />
        </mxCell>
        <mxCell id="MS2a3Lw9wrA2Gzybz4xg-6" value="巡检码&lt;br&gt;MP_ulPatrolCode[index]" style="rounded=0;whiteSpace=wrap;html=1;" vertex="1" parent="1">
          <mxGeometry x="200" y="320" width="150" height="40" as="geometry" />
        </mxCell>
        <mxCell id="MS2a3Lw9wrA2Gzybz4xg-14" style="edgeStyle=orthogonalEdgeStyle;rounded=0;orthogonalLoop=1;jettySize=auto;html=1;exitX=0.5;exitY=1;exitDx=0;exitDy=0;entryX=0.5;entryY=0;entryDx=0;entryDy=0;" edge="1" parent="1" source="MS2a3Lw9wrA2Gzybz4xg-7" target="MS2a3Lw9wrA2Gzybz4xg-9">
          <mxGeometry relative="1" as="geometry" />
        </mxCell>
        <mxCell id="MS2a3Lw9wrA2Gzybz4xg-7" value="读写内存巡检" style="rounded=0;whiteSpace=wrap;html=1;" vertex="1" parent="1">
          <mxGeometry x="200" y="400" width="150" height="40" as="geometry" />
        </mxCell>
        <mxCell id="MS2a3Lw9wrA2Gzybz4xg-8" value="解锁操作" style="rounded=0;whiteSpace=wrap;html=1;" vertex="1" parent="1">
          <mxGeometry x="40" y="560" width="120" height="40" as="geometry" />
        </mxCell>
        <mxCell id="MS2a3Lw9wrA2Gzybz4xg-16" style="edgeStyle=orthogonalEdgeStyle;rounded=0;orthogonalLoop=1;jettySize=auto;html=1;exitX=0;exitY=0.5;exitDx=0;exitDy=0;entryX=1;entryY=0.5;entryDx=0;entryDy=0;" edge="1" parent="1" source="MS2a3Lw9wrA2Gzybz4xg-9" target="MS2a3Lw9wrA2Gzybz4xg-8">
          <mxGeometry relative="1" as="geometry" />
        </mxCell>
        <mxCell id="MS2a3Lw9wrA2Gzybz4xg-9" value="address=address+length；&lt;br&gt;index++" style="rounded=0;whiteSpace=wrap;html=1;" vertex="1" parent="1">
          <mxGeometry x="200" y="480" width="150" height="40" as="geometry" />
        </mxCell>
      </root>
    </mxGraphModel>
  </diagram>
</mxfile>
